<svg width="22" height="22" viewBox="0 0 22 22" fill="none" xmlns="http://www.w3.org/2000/svg">
<circle cx="10.5644" cy="10.5644" r="10.5644" fill="#00BFFF"/>
<path d="M14.7498 13.4599L14.1776 11.7265H13.5497L13.8984 13.4168H7.75954L8.10821 11.7265H7.48035L6.90774 13.4599C6.76249 13.9011 7.01992 14.262 7.48035 14.262H14.1776C14.638 14.262 14.8954 13.9011 14.7498 13.4599ZM12.9218 7.92331C12.9218 7.36294 12.7013 6.82552 12.3088 6.42927C11.9164 6.03303 11.384 5.81042 10.829 5.81042C10.2739 5.81042 9.74156 6.03303 9.34907 6.42927C8.95658 6.82552 8.73608 7.36294 8.73608 7.92331C8.73608 9.94112 10.829 12.1491 10.829 12.1491C10.829 12.1491 12.9218 9.94112 12.9218 7.92331ZM9.6988 7.94866C9.69891 7.64614 9.81803 7.35604 10.03 7.14216C10.2419 6.92828 10.5293 6.80813 10.829 6.80813C11.1286 6.80813 11.416 6.92831 11.628 7.14225C11.8399 7.35618 11.9589 7.64633 11.9589 7.94888C11.9589 8.25142 11.8399 8.54157 11.628 8.75551C11.416 8.96944 11.1286 9.08962 10.829 9.08962C10.5292 9.08962 10.2418 8.96942 10.0298 8.75544C9.81787 8.54147 9.6988 8.25127 9.6988 7.94866Z" fill="white"/>
</svg>
